HIERARCHY
ROOT Hips
{
  OFFSET 196.326 95.9168 97.7182
  CHANNELS 6 Xposition Yposition Zposition Zrotation Xrotation Yrotation
  JOINT LeftUpLeg
  {
    OFFSET 8.64259 1.95398 -2.38835
    CHANNELS 3 Zrotation Xrotation Yrotation
    JOINT LeftLeg
    {
      OFFSET 43.7702 0 0
      CHANNELS 3 Zrotation Xrotation Yrotation
      JOINT LeftFoot
      {
        OFFSET 40.6238 0 0
        CHANNELS 3 Zrotation Xrotation Yrotation
        JOINT LeftToeBase
        {
          OFFSET 12.7242 0 0
          CHANNELS 3 Zrotation Xrotation Yrotation
          End Site
          {
            OFFSET 0 0 0
          }
        }
      }
    }
  }
  JOINT RightUpLeg
  {
    OFFSET -8.2249 1.95398 -2.59336
    CHANNELS 3 Zrotation Xrotation Yrotation
    JOINT RightLeg
    {
      OFFSET 43.5653 0 0
      CHANNELS 3 Zrotation Xrotation Yrotation
      JOINT RightFoot
      {
        OFFSET 40.6238 0 0
        CHANNELS 3 Zrotation Xrotation Yrotation
        JOINT RightToeBase
        {
          OFFSET 12.7242 0 0
          CHANNELS 3 Zrotation Xrotation Yrotation
          End Site
          {
            OFFSET 0 0 0
          }
        }
      }
    }
  }
  JOINT Spine
  {
    OFFSET 0.165834 0.87714 6.61349
    CHANNELS 3 Zrotation Xrotation Yrotation
    JOINT Spine1
    {
      OFFSET 7.38963 1.71661e-005 0
      CHANNELS 3 Zrotation Xrotation Yrotation
      JOINT Spine2
      {
        OFFSET 11.9445 1.14441e-005 0
        CHANNELS 3 Zrotation Xrotation Yrotation
        JOINT Spine3
        {
          OFFSET 14.7254 4.19617e-005 0
          CHANNELS 3 Zrotation Xrotation Yrotation
          JOINT Spine4
          {
            OFFSET 10.9679 0 0
            CHANNELS 3 Zrotation Xrotation Yrotation
            JOINT RightShoulder
            {
              OFFSET 2.46616 -1.6653 3.69651
              CHANNELS 3 Zrotation Xrotation Yrotation
              JOINT RightArm
              {
                OFFSET 13.0012 0 0
                CHANNELS 3 Zrotation Xrotation Yrotation
                JOINT RightForeArm
                {
                  OFFSET 28.7848 1.52588e-005 0
                  CHANNELS 3 Zrotation Xrotation Yrotation
                  JOINT RightHand
                  {
                    OFFSET 26.5688 1.52588e-005 0
                    CHANNELS 3 Zrotation Xrotation Yrotation
                    End Site
                    {
                      OFFSET 0 0 0
                    }
                  }
                }
              }
            }
            JOINT LeftShoulder
            {
              OFFSET 2.38034 -1.29275 -3.75231
              CHANNELS 3 Zrotation Xrotation Yrotation
              JOINT LeftArm
              {
                OFFSET 16.3182 6.10351e-005 0
                CHANNELS 3 Zrotation Xrotation Yrotation
                JOINT LeftForeArm
                {
                  OFFSET 27.0901 0 0
                  CHANNELS 3 Zrotation Xrotation Yrotation
                  JOINT LeftHand
                  {
                    OFFSET 24.5451 1.52588e-005 0
                    CHANNELS 3 Zrotation Xrotation Yrotation
                    End Site
                    {
                      OFFSET 0 0 0
                    }
                  }
                }
              }
            }
            JOINT Neck
            {
              OFFSET 5.0226 -0.0266342 0
              CHANNELS 3 Zrotation Xrotation Yrotation
              JOINT Head
              {
                OFFSET 6.69363 2.86102e-005 0
                CHANNELS 3 Zrotation Xrotation Yrotation
                End Site
                {
                  OFFSET 0 0 0
                }
              }
            }
          }
        }
      }
    }
  }
}
MOTION
Frames:	7
Frame Time:	0.0416667
-7247.25 361.663 -7276.14 -97.861 2.14452 -79.984 -131.563 50.7692 99.9428 178.921 57.8509 -179.002 136.799 -60.544 -177.663 -107.694 48.8537 -112.329 -130.08 -75.5391 130.738 2.2426 -9.63159 12.4016 -16.7354 -1.58755 48.411 149.3 31.6163 13.8037 12.5618 5.62468 -94.8302 17.2846 22.299 -13.7048 5.72852 21.6801 -14.6925 -18.2778 25.3266 -6.03501 1.73484 25.3266 -6.03501 116.354 -2.72047 -33.2832 70.9476 -42.945 16.4622 55.7911 -20.7626 -31.0305 -22.8941 -19.7616 78.0992 -44.3776 68.1465 34.8983 -30.2639 -37.9254 159.847 -74.0166 74.6567 -0.310991 -0.871833 2.96907 -53.3066 27.974 -61.0588 72.1089 -47.1165 -68.4277 -51.2163 
-7256.24 360.691 -7283.73 -98.2322 2.21939 -80.1804 -131.176 50.6997 101.366 179.055 56.5437 -179.124 133.089 -57.1517 179.83 -97.4169 54.1639 -120.036 -133.949 -76.1298 125.777 2.71118 -12.4911 12.8995 -16.1389 -0.809808 49.8835 149.475 32.8587 14.5891 12.6164 5.82236 -94.874 16.8808 22.4225 -13.6824 5.32718 21.8045 -14.6763 -18.7014 25.4368 -5.96909 1.31125 25.4368 -5.96911 116.671 -2.89526 -32.5329 69.1051 -43.6652 14.5547 55.6895 -21.2886 -31.0622 -22.6103 -19.75 78.9021 -46.8333 67.5443 37.8578 -27.3482 -25.4245 162.834 116.467 79.7428 -179.572 -0.747157 1.47383 -53.7778 30.0204 -60.5058 73.8165 -49.1711 -68.3626 -52.8688 
-7281.59 357.99 -7305.12 -99.2801 2.4401 -80.6887 -130.22 50.6215 105.559 179.43 44.9279 -179.447 138.801 -48.2937 -171.602 -78.5016 62.3148 -137.587 -147.399 -77.0677 109.208 4.08473 -20.6888 14.3629 -14.2715 1.55691 54.133 149.281 36.6867 17.327 12.7557 6.37496 -94.9944 15.7465 22.7406 -13.6047 4.19976 22.1256 -14.6149 -19.8876 25.7145 -5.77968 0.125048 25.7145 -5.77968 117.636 -3.56246 -30.4914 63.5381 -45.4089 8.81358 55.3903 -22.7001 -31.1342 -21.8864 -19.6817 80.923 -52.8846 65.6373 45.294 -23.1469 8.52198 168.575 150.6 53.1567 -179.931 -0.396786 -1.20813 -55.1153 35.3565 -58.7858 78.1733 -54.6871 -68.08 -57.28 
-7320.69 353.891 -7338.12 -100.936 2.83527 -81.3419 -129.143 50.8583 112.508 -0.139882 12.4936 -0.478552 57.8607 10.5723 53.441 -71.2564 69.3526 -149.577 -169.988 -75.9238 81.7265 6.51616 -33.3907 16.7142 -11.069 5.70363 60.9247 146.37 43.2637 23.5329 12.9393 7.21765 -95.1741 14.0032 23.1662 -13.4504 2.4664 22.5572 -14.4827 -21.703 26.0708 -5.4766 -1.69041 26.0708 -5.4766 119.351 -5.07298 -27.5217 53.9597 -47.1403 -0.986626 54.8982 -24.6878 -31.2167 -20.9568 -19.5084 83.444 -60.0906 62.3051 54.6684 -23.6541 45.8971 176.685 -171.914 33.1493 179.986 0.332263 -1.4294 -57.0943 42.4606 -55.7678 83.6974 -62.4 -67.4353 -63.3612 
-7370.96 348.694 -7380.52 -103.19 3.47735 -81.8851 -128.468 51.5582 121.726 -0.219492 -19.6903 -0.259599 67.9663 -1.58329 18.0624 -89.9428 76.1765 -140.09 171.876 -70.4481 57.0847 10.8689 -49.1789 20.4389 -6.97974 11.7764 69.9982 136.639 51.3189 36.1452 13.14 8.26875 -95.399 11.8121 23.6318 -13.2232 0.287038 23.032 -14.2802 -23.9761 26.443 -5.08752 -3.96347 26.443 -5.08751 121.933 -7.74709 -24.0456 40.79 -47.3369 -14.281 54.2343 -26.949 -31.227 -20.0521 -19.2189 85.7909 -66.5146 57.6888 63.9967 -35.6461 68.2801 -165.753 -149.781 10.3905 179.956 1.61059 -2.17667 -59.6447 49.8509 -51.5273 88.9428 -70.9075 -66.3814 -69.8925 
-7429.89 342.689 -7430.14 -106.156 4.47045 -81.8954 -129.129 53.0242 133.452 -0.340037 -28.336 -0.32733 80.414 -18.4346 14.0315 -140.559 76.5232 -100.188 166.041 -60.9738 43.2686 20.0797 -65.9175 28.64 -3.38297 19.0812 81.2901 116.425 56.8879 57.9481 13.4567 9.38161 -95.7082 9.5136 24.2859 -13.1275 -1.99683 23.6893 -14.2185 -26.3884 27.0335 -4.75347 -6.37578 27.0335 -4.75347 125.347 -11.1885 -19.9878 26.5348 -44.7455 -28.4605 53.3834 -29.1328 -31.1353 -19.3588 -18.8717 87.4691 -71.4656 52.4248 72.9419 -58.6817 76.4048 -138.652 -141.508 -12.6124 179.945 3.48703 -3.35558 -62.5667 56.9844 -46.8382 94.3329 -79.8866 -65.098 -76.8223 
-7494.98 336.191 -7484.82 -110.456 5.74983 -80.3186 -132.495 55.5052 148.177 0.0376256 -42.3166 0.00215218 82.7637 -35.7223 6.65102 -171.095 68.8045 -79.5061 169.664 -49.5995 38.3938 66.1054 -81.0533 73.6966 -0.470754 28.0939 94.3883 92.334 55.8685 82.0793 11.7748 11.2979 -95.2707 5.08582 21.3576 -10.6499 -6.45719 20.8728 -11.6045 -30.3913 23.5098 -3.43574 -10.3786 23.5098 -3.43574 127.992 -25.2471 -28.5169 9.83891 -38.2821 -42.6921 54.6611 -34.2775 -26.7903 -19.008 -18.1346 88.2735 -73.9865 41.1832 68.9513 -63.7985 54.0572 -118.659 -153.462 -8.53766 179.962 5.96964 -5.04084 -65.7244 61.2183 -29.8801 81.8044 -71.4788 -61.1375 -64.1406 
